<svg width="22" height="22" viewBox="0 0 22 22" fill="none" xmlns="http://www.w3.org/2000/svg">
  <rect width="22" height="22" rx="5" fill="#EEF0FF"/>
  <path d="M14.937 8.968C14.184 8.579 13.034 8.437 12.159 8.437C11.248 8.437 10.812 8.716 10.812 9.152C10.812 9.46 11.07 9.646 11.898 9.873L12.665 10.086C14.014 10.459 14.758 11.011 14.758 12.169C14.758 13.53 13.644 14.5 11.779 14.5C10.755 14.5 9.719 14.282 8.937 13.923V12.356C9.785 12.785 10.878 13.045 11.747 13.045C12.709 13.045 13.167 12.75 13.167 12.288C13.167 11.958 12.925 11.749 12.098 11.52L11.328 11.309C9.99 10.942 9.22 10.393 9.22 9.269C9.22 7.978 10.328 7 12.157 7C13.115 7 14.073 7.178 14.937 7.553V8.968Z" fill="#635BFF"/>
</svg>
