<svg width="128" height="128" viewBox="0 0 128 128" fill="none" xmlns="http://www.w3.org/2000/svg">
<g clip-path="url(#clip0_1763_7073)">
<path d="M8 73.6667L88 72L74 78L77.9583 85.1667H8V73.6667Z" fill="#FFE63A"/>
<path d="M74.5 86.125H56.2471H16.7434C11.9145 86.125 8 82.2105 8 77.3816V28.7434C8 23.9145 11.9145 20 16.7434 20H95.09C99.9188 20 103.833 23.9145 103.833 28.7434V54.7518C103.833 63.2613 103.833 60.9905 103.833 69.5" stroke="#333333" stroke-width="5.6"/>
<path d="M76.0003 111.917H32" stroke="#333333" stroke-width="5.6"/>
<path d="M55.9609 85C55.9609 85 55.9609 106.754 55.9609 111.833" stroke="#333333" stroke-width="5.6"/>
<path d="M8 72H82" stroke="#333333" stroke-width="5.6"/>
<path d="M76.0071 84.5071L73.1844 81.6844C72.4958 80.9958 72.3948 79.9258 73.0258 79.184C75.5941 76.1652 83.006 69 95.5011 69C107.827 69 115.192 77.2609 117.601 80.4921C118.15 81.2282 118.042 82.2265 117.409 82.8918L115.132 85.2842C114.273 86.1881 112.79 86.1337 111.908 85.252C109.206 82.5534 103.255 77.6809 95.5011 77.6809C87.9894 77.6809 81.7908 82.1798 79.0363 84.5608C78.1629 85.3158 76.8235 85.3235 76.0071 84.5071Z" stroke="#333333" stroke-width="5.6"/>
<path d="M85.434 116.118L82.2157 117.19C79.9941 117.931 77.5809 116.663 76.8463 114.44C75.5681 110.571 73.9219 105.832 73.0213 101.702L80.221 99.3022C81.312 98.9385 82.4881 99.5469 82.8216 100.648L86.7429 113.588C87.0637 114.646 86.4834 115.768 85.434 116.118Z" fill="#FFE63A"/>
<path d="M75.0638 82.2979C74.0426 84 72 88.4255 72 92.5106C72 94.129 72.1951 97.9142 73.0213 101.702M73.0213 101.702C73.9219 105.832 75.5681 110.571 76.8463 114.44C77.5809 116.663 79.9941 117.931 82.2157 117.19L85.434 116.118C86.4834 115.768 87.0637 114.646 86.7429 113.588L82.8216 100.648C82.4881 99.5469 81.312 98.9385 80.221 99.3022L73.0213 101.702Z" stroke="#333333" stroke-width="5.6"/>
<path d="M106.566 116.118L109.784 117.19C112.006 117.931 114.419 116.663 115.154 114.44C116.432 110.571 118.078 105.832 118.979 101.702L111.779 99.3022C110.688 98.9385 109.512 99.5469 109.178 100.648L105.257 113.588C104.936 114.646 105.517 115.768 106.566 116.118Z" fill="#FFE63A"/>
<path d="M116.936 82.2979C117.957 84 120 88.4255 120 92.5106C120 94.129 119.805 97.9142 118.979 101.702M118.979 101.702C118.078 105.832 116.432 110.571 115.154 114.44C114.419 116.663 112.006 117.931 109.784 117.19L106.566 116.118C105.517 115.768 104.936 114.646 105.257 113.588L109.178 100.648C109.512 99.5469 110.688 98.9385 111.779 99.3022L118.979 101.702Z" stroke="#333333" stroke-width="5.6"/>
</g>
<defs>
<clipPath id="clip0_1763_7073">
<rect width="128" height="128" fill="white"/>
</clipPath>
</defs>
</svg>
